<?xml version="1.0" standalone="no"?><!DOCTYPE svg PUBLIC "-//W3C//DTD SVG 1.1//EN" "http://www.w3.org/Graphics/SVG/1.1/DTD/svg11.dtd"><svg t="1732002976694" class="icon" viewBox="0 0 1024 1024" version="1.1" xmlns="http://www.w3.org/2000/svg" p-id="3519" xmlns:xlink="http://www.w3.org/1999/xlink" width="200" height="200"><path d="M989.68462222 467.02774045l-103.86727822-103.63426134V216.88411022A70.72062578 70.72062578 0 0 0 814.92195555 146.10523022h-146.39286044L564.89483378 42.47096889a70.72062578 70.72062578 0 0 0-100.08075378 0L361.17981867 146.10523022H214.90346667a70.77888 70.77888 0 0 0-71.01189689 70.77888v146.50936889L40.1408 467.02774045a70.83713422 70.83713422 0 0 0 0 100.08075377l103.63426133 103.63426133v146.5093689A70.77888 70.77888 0 0 0 214.90346667 888.03100445h146.276352l103.63426133 103.63426133a70.83713422 70.83713422 0 0 0 100.08075378 0l103.63426133-103.63426133H814.92195555a70.72062578 70.72062578 0 0 0 70.72062578-70.77888v-146.5093689L989.68462222 567.10849422a70.72062578 70.72062578 0 0 0 0-100.08075377z" fill="#4FE99D" p-id="3520"></path><path d="M981.70379378 574.91456l-95.88644978-95.88644978V332.51874133A70.77888 70.77888 0 0 0 814.92195555 261.50684445h-146.39286044l-103.63426133-103.40124445a70.83713422 70.83713422 0 0 0-100.08075378 0L361.17981867 261.50684445H214.90346667a70.77888 70.77888 0 0 0-71.01189689 71.01189688v146.50936889L48.06337422 574.91456l95.82819556 95.82819555v146.5093689A70.77888 70.77888 0 0 0 214.90346667 888.03100445h146.276352l103.63426133 103.63426133a70.83713422 70.83713422 0 0 0 100.08075378 0l103.63426133-103.63426133H814.92195555a70.77888 70.77888 0 0 0 70.72062578-70.77888v-146.5093689z" fill="#4EE5A1" p-id="3521"></path><path d="M881.44827733 594.72099555V447.92035555a70.77888 70.77888 0 0 0-70.77888-70.77888h-146.50936888l-103.63426134-103.34299022a70.72062578 70.72062578 0 0 0-100.08075378 0L356.810752 377.37449245H210.30138311A70.77888 70.77888 0 0 0 139.52250311 447.92035555v146.80064l-35.82634666 35.82634667 40.19541333 40.19541333v146.5093689A70.77888 70.77888 0 0 0 214.90346667 888.03100445h146.276352l103.63426133 103.63426133a70.83713422 70.83713422 0 0 0 100.08075378 0l103.63426133-103.63426133H814.92195555a70.77888 70.77888 0 0 0 70.72062578-70.77888v-146.5093689l35.82634667-35.82634666z" fill="#45DDA3" p-id="3522"></path><path d="M885.817344 563.84625778A70.77888 70.77888 0 0 0 814.92195555 493.06737778h-146.39286044L564.89483378 389.66613333a70.72062578 70.72062578 0 0 0-100.08075378 0L361.17981867 493.06737778H214.90346667a70.77888 70.77888 0 0 0-71.01189689 70.77888v253.40586667A70.77888 70.77888 0 0 0 214.90346667 888.03100445h146.276352l103.63426133 103.63426133a70.83713422 70.83713422 0 0 0 100.08075378 0l103.63426133-103.63426133H814.92195555a70.77888 70.77888 0 0 0 70.72062578-70.77888v-253.40586667z" fill="#48D3A1" p-id="3523"></path><path d="M214.90346667 888.03100445h146.276352l103.63426133 103.63426133a70.83713422 70.83713422 0 0 0 100.08075378 0l103.63426133-103.63426133H814.92195555a70.77888 70.77888 0 0 0 69.90506667-58.720256l-3.32049067-3.32049067v-146.50936889a70.77888 70.77888 0 0 0-70.77888-70.77888h-146.5676231l-103.63426134-103.63426134a70.83713422 70.83713422 0 0 0-100.08075378 0L356.810752 608.70200889H210.30138311a70.72062578 70.72062578 0 0 0-69.90506666 58.720256l3.26223644 3.32049066v146.5093689A70.77888 70.77888 0 0 0 214.90346667 888.03100445z" fill="#3ACC9B" p-id="3524"></path><path d="M464.75582578 705.34576355a64.66218667 64.66218667 0 0 1-49.22481778-22.60263822l-126.76118755-147.79096178a46.60337778 46.60337778 0 1 1 70.72062577-60.70089955l103.98378667 121.16878222 196.95752533-259.69732267a46.60337778 46.60337778 0 0 1 74.27413333 56.3318329l-218.22031644 287.65934933a64.66218667 64.66218667 0 0 1-49.74910578 25.63185777z" fill="#FFFFFF" p-id="3525"></path></svg>