<?xml version="1.0" standalone="no"?><!DOCTYPE svg PUBLIC "-//W3C//DTD SVG 1.1//EN" "http://www.w3.org/Graphics/SVG/1.1/DTD/svg11.dtd"><svg t="1732001884335" class="icon" viewBox="0 0 1024 1024" version="1.1" xmlns="http://www.w3.org/2000/svg" p-id="4006" xmlns:xlink="http://www.w3.org/1999/xlink" width="200" height="200"><path d="M1001.335244 457.022476l-100.556778-100.534022V200.977022a77.983272 77.983272 0 0 0-77.755716-77.755716h-155.511432L566.977296 22.687284a77.983272 77.983272 0 0 0-109.95482 0l-100.534022 100.534022H200.977022a77.983272 77.983272 0 0 0-77.755716 77.755716v155.511432L22.687284 457.022476a77.983272 77.983272 0 0 0 0 109.95482l100.534022 100.534022v155.511432a77.983272 77.983272 0 0 0 77.755716 77.755716h155.511432l100.534022 100.534023a77.983272 77.983272 0 0 0 109.977576 0l100.511266-100.534023h155.511432a77.983272 77.983272 0 0 0 77.755716-77.755716v-155.511432l100.556778-100.534022a77.983272 77.983272 0 0 0 0-109.95482zM511.999886 784.15627L278.755494 356.488454h116.644951L511.999886 589.755602l116.644952-233.267148h116.622196z" fill="#ffd027" p-id="4007"></path></svg>