<?xml version="1.0" standalone="no"?><!DOCTYPE svg PUBLIC "-//W3C//DTD SVG 1.1//EN" "http://www.w3.org/Graphics/SVG/1.1/DTD/svg11.dtd"><svg t="1732001875404" class="icon" viewBox="0 0 1024 1024" version="1.1" xmlns="http://www.w3.org/2000/svg" p-id="3849" xmlns:xlink="http://www.w3.org/1999/xlink" width="200" height="200"><path d="M1007.60462222 437.69173333a74.17173333 74.17173333 0 0 0 11.35502223-62.39573333 74.1376 74.1376 0 0 0-41.02826667-48.35555555c-49.22026667-22.28906667-78.76835555-73.45493333-73.46631111-127.22631112a74.15580445 74.15580445 0 0 0-81.05528889-81.06666666c-53.76 5.30204445-104.92586667-24.23466667-127.22631111-73.44355556a74.1376 74.1376 0 0 0-48.35555556-41.02826666 74.13873778 74.13873778 0 0 0-62.38435556 11.35502222c-43.90684445 31.45955555-102.98026667 31.45955555-146.8871111 0a74.17173333 74.17173333 0 0 0-62.39573334-11.35502222 74.1376 74.1376 0 0 0-48.35555556 41.02826666c-22.28906667 49.22026667-73.45493333 78.76835555-127.2263111 73.46631111a74.15580445 74.15580445 0 0 0-81.06666667 81.05528889c5.30204445 53.76-24.23466667 104.92586667-73.44355556 127.22631111a74.1376 74.1376 0 0 0-41.02826667 48.35555556 74.15694222 74.15694222 0 0 0 11.35502223 62.39573333c31.45955555 43.90684445 31.45955555 102.98026667 0 146.88711111-12.93653333 18.04515555-17.1008 40.93724445-11.35502223 62.38435556s20.79857778 39.19644445 41.02826667 48.35555555c49.22026667 22.28906667 78.76835555 73.45493333 73.46631111 127.22631112a74.15580445 74.15580445 0 0 0 81.05528889 81.06666666c53.76-5.30204445 104.92586667 24.23466667 127.22631111 73.44355556a74.1376 74.1376 0 0 0 48.35555556 41.02826666 74.15694222 74.15694222 0 0 0 62.39573333-11.35502222c43.90684445-31.45955555 102.98026667-31.45955555 146.88711111 0 18.04515555 12.93653333 40.93724445 17.1008 62.38435556 11.35502222s39.19644445-20.79857778 48.35555556-41.02826666c22.28906667-49.22026667 73.45493333-78.76835555 127.2263111-73.46631112a74.15580445 74.15580445 0 0 0 81.06666667-81.05528888c-5.30204445-53.76 24.23466667-104.92586667 73.44355556-127.22631112a74.1376 74.1376 0 0 0 41.02826667-48.35555555 74.13873778 74.13873778 0 0 0-11.35502223-62.38435555c-31.45955555-43.90684445-31.45955555-102.98026667 0-146.88711112z m-240.8448-55.92177778c-10.93404445 0-18.87573333 4.11875555-23.77955555 12.31075556-3.31093333 5.41582222-6.38293333 11.00231111-9.19324445 16.72533334l-151.16515555 344.17777777c-7.58897778 17.29422222-23.97297778 28.3648-41.984 28.3648h-52.49706667c-17.94275555 0-34.28124445-10.97955555-41.91573333-28.17137777L290.07644445 403.84284445c-2.32106667-5.7344-6.36017778-10.51306667-11.49155556-13.58506667a94.59370667 94.59370667 0 0 0-16.86186667-7.0656l-4.47146667-1.42222223v-15.28035555l146.86435556 0.01137778v15.28035555c-3.82293333 0-7.49795555 0.97848889-11.07057778 2.9696-3.53848889 1.99111111-5.3248 5.81404445-5.3248 11.48017778 0 6.22364445 2.32106667 14.15395555 6.97457778 23.77955556l7.69137778 16.11093333 9.12497778 19.51288889 105.02826666 233.48337778 102.54791112-230.08142222c5.25653333-11.76462222 10.24-22.56213333 14.96177777-32.34702223l3.49297778-7.13386667c5.74577778-11.59395555 8.61297778-19.6608 8.61297778-24.20053333 0-8.33991111-6.50808889-12.84551111-19.56977778-13.48266667l-3.40195555-0.1024v-15.28035555h143.57617777v15.28035555z" fill="#38c490" p-id="3850"></path></svg>