<?xml version="1.0" standalone="no"?><!DOCTYPE svg PUBLIC "-//W3C//DTD SVG 1.1//EN" "http://www.w3.org/Graphics/SVG/1.1/DTD/svg11.dtd"><svg t="1732599904138" class="icon" viewBox="0 0 1024 1024" version="1.1" xmlns="http://www.w3.org/2000/svg" p-id="3361" width="256" height="256" xmlns:xlink="http://www.w3.org/1999/xlink"><path d="M994.24 440l-103.36-103.36V231.36a98.24 98.24 0 0 0-98.24-98.24h-105.28L584 29.76a102.08 102.08 0 0 0-144 0l-103.36 103.36H231.36a98.24 98.24 0 0 0-98.24 98.24v105.28L29.76 440a102.08 102.08 0 0 0 0 144l103.36 103.36v105.28a98.56 98.56 0 0 0 98.24 98.24h105.28l103.36 103.36a102.08 102.08 0 0 0 144 0l103.36-103.36h105.28a98.24 98.24 0 0 0 98.24-98.24v-105.28l103.36-103.36a102.08 102.08 0 0 0 0-144z" fill="#4995ff" p-id="3362"></path><path d="M720 278.4l-271.36 305.28-76.8-60.16-85.12-66.88L209.28 544l162.56 127.68 94.08 73.92 348.8-392.32L720 278.4z" fill="#ffffff" p-id="3363" data-spm-anchor-id="a313x.manage_type_myprojects.0.i2.8d5a3a81qquLQm" class=""></path></svg>