<?xml version="1.0" encoding="UTF-8"?>
<?xml-stylesheet href="https://cdnjs.cloudflare.com/ajax/libs/font-awesome/6.6.0/css/all.min.css" type="text/css"?>
<svg aria-roledescription="pie" role="graphics-document document" style="max-width: 100%;" viewBox="0 0 598 450" xmlns="http://www.w3.org/2000/svg" width="100%" id="graph-div" height="100%" xmlns:xlink="http://www.w3.org/1999/xlink"><style>#graph-div{font-family:MiSans, :"trebuchet ms",verdana,arial,sans-serif;font-size:16px;fill:#E3AD92;}#graph-div .error-icon{fill:#552222;}#graph-div .error-text{fill:#552222;stroke:#552222;}#graph-div .edge-thickness-normal{stroke-width:1px;}#graph-div .edge-thickness-thick{stroke-width:3.5px;}#graph-div .edge-pattern-solid{stroke-dasharray:0;}#graph-div .edge-thickness-invisible{stroke-width:0;fill:none;}#graph-div .edge-pattern-dashed{stroke-dasharray:3;}#graph-div .edge-pattern-dotted{stroke-dasharray:2;}#graph-div .marker{fill:#E3AD92333;stroke:#333333;}#graph-div .marker.cross{stroke:#333333;}#graph-div svg{font-family:MiSans, :"trebuchet ms",verdana,arial,sans-serif;font-size:16px;}#graph-div p{margin:0;}#graph-div .pieCircle{stroke:black;stroke-width:2px;opacity:0.7;}#graph-div .pieOuterCircle{stroke:black;stroke-width:2px;fill:none;}#graph-div .pieTitleText{text-anchor:middle;font-size:25px;fill:#E3AD92;font-family:MiSans, :"trebuchet ms",verdana,arial,sans-serif;}#graph-div .slice{font-family:MiSans, :"trebuchet ms",verdana,arial,sans-serif;fill:#f2b94b;font-size:17px;}#graph-div .legend text{fill:#E3AD92;font-family:MiSans, :"trebuchet ms",verdana,arial,sans-serif;font-size:17px;}#graph-div :root{--mermaid-font-family:MiSans, :"trebuchet ms",verdana,arial,sans-serif;}</style><g></g><g transform="translate(225,225)"><circle class="pieOuterCircle" r="186" cy="0" cx="0"></circle><path class="pieCircle" fill="#ECECFF" d="M0,-185A185,185,0,0,1,101.375,154.752L0,0Z"></path><path class="pieCircle" fill="#ffffde" d="M101.375,154.752A185,185,0,0,1,-172.009,68.103L0,0Z"></path><path class="pieCircle" fill="hsl(80, 100%, 56.2745098039%)" d="M-172.009,68.103A185,185,0,0,1,-127.317,-134.221L0,0Z"></path><path class="pieCircle" fill="hsl(240, 100%, 86.2745098039%)" d="M-127.317,-134.221A185,185,0,0,1,-80.657,-166.491L0,0Z"></path><path class="pieCircle" fill="hsl(60, 100%, 63.5294117647%)" d="M-80.657,-166.491A185,185,0,0,1,-39.448,-180.745L0,0Z"></path><path class="pieCircle" fill="hsl(80, 100%, 76.2745098039%)" d="M-39.448,-180.745A185,185,0,0,1,-8.482,-184.805L0,0Z"></path><path class="pieCircle" fill="hsl(300, 100%, 76.2745098039%)" d="M-8.482,-184.805A185,185,0,0,1,-0.349,-185L0,0Z"></path><path class="pieCircle" fill="hsl(180, 100%, 56.2745098039%)" d="M-0.349,-185A185,185,0,0,1,-0.116,-185L0,0Z"></path><path class="pieCircle" fill="hsl(0, 100%, 56.2745098039%)" d="M-0.116,-185A185,185,0,0,1,0,-185L0,0Z"></path><text style="text-anchor: middle;" class="slice" transform="translate(132.95756753908805,-39.671749823883985)">41%</text><text style="text-anchor: middle;" class="slice" transform="translate(-41.9215050465587,132.26545246069117)">28%</text><text style="text-anchor: middle;" class="slice" transform="translate(-135.48409319194445,-29.92696095423845)">19%</text><text style="text-anchor: middle;" class="slice" transform="translate(-78.92381146536006,-114.1165828606005)">5%</text><text style="text-anchor: middle;" class="slice" transform="translate(-45.35571411462313,-131.12750168119797)">4%</text><text style="text-anchor: middle;" class="slice" transform="translate(-18.038478886249866,-137.57243829877524)">3%</text><text style="text-anchor: middle;" class="slice" transform="translate(-3.312494707545324,-138.71045338694734)">1%</text><text style="text-anchor: middle;" class="slice" transform="translate(-0.17435834638488837,-138.74989044740556)">0%</text><text style="text-anchor: middle;" class="slice" transform="translate(-0.04358959735138848,-138.74999315296202)">0%</text><text class="pieTitleText" y="-200" x="0"></text><g transform="translate(216,-99)" class="legend"><rect style="fill: rgb(236, 236, 255); stroke: rgb(236, 236, 255);" height="18" width="18"></rect><text y="14" x="22">板带材钢</text></g><g transform="translate(216,-77)" class="legend"><rect style="fill: rgb(255, 255, 222); stroke: rgb(255, 255, 222);" height="18" width="18"></rect><text y="14" x="22">管材钢</text></g><g transform="translate(216,-55)" class="legend"><rect style="fill: rgb(181, 255, 32); stroke: rgb(181, 255, 32);" height="18" width="18"></rect><text y="14" x="22">棒线材</text></g><g transform="translate(216,-33)" class="legend"><rect style="fill: rgb(185, 185, 255); stroke: rgb(185, 185, 255);" height="18" width="18"></rect><text y="14" x="22">角型钢</text></g><g transform="translate(216,-11)" class="legend"><rect style="fill: rgb(255, 255, 69); stroke: rgb(255, 255, 69);" height="18" width="18"></rect><text y="14" x="22">钢丝</text></g><g transform="translate(216,11)" class="legend"><rect style="fill: rgb(215, 255, 134); stroke: rgb(215, 255, 134);" height="18" width="18"></rect><text y="14" x="22">一次性材料</text></g><g transform="translate(216,33)" class="legend"><rect style="fill: rgb(255, 134, 255); stroke: rgb(255, 134, 255);" height="18" width="18"></rect><text y="14" x="22">铁道用材</text></g><g transform="translate(216,55)" class="legend"><rect style="fill: rgb(32, 255, 255); stroke: rgb(32, 255, 255);" height="18" width="18"></rect><text y="14" x="22">其他</text></g><g transform="translate(216,77)" class="legend"><rect style="fill: rgb(255, 32, 32); stroke: rgb(255, 32, 32);" height="18" width="18"></rect><text y="14" x="22">半制成品</text></g></g></svg>