<?xml version="1.0" encoding="UTF-8"?>
<?xml-stylesheet href="https://cdnjs.cloudflare.com/ajax/libs/font-awesome/6.6.0/css/all.min.css" type="text/css"?>
<svg aria-roledescription="pie" role="graphics-document document" style="max-width: 100%;" viewBox="0 0 616 450" xmlns="http://www.w3.org/2000/svg" width="100%" id="graph-div" height="100%" xmlns:xlink="http://www.w3.org/1999/xlink"><style>#graph-div{font-family:MiSans, :"trebuchet ms",verdana,arial,sans-serif;font-size:16px;fill:#E3AD92;}#graph-div .error-icon{fill:#552222;}#graph-div .error-text{fill:#552222;stroke:#552222;}#graph-div .edge-thickness-normal{stroke-width:1px;}#graph-div .edge-thickness-thick{stroke-width:3.5px;}#graph-div .edge-pattern-solid{stroke-dasharray:0;}#graph-div .edge-thickness-invisible{stroke-width:0;fill:none;}#graph-div .edge-pattern-dashed{stroke-dasharray:3;}#graph-div .edge-pattern-dotted{stroke-dasharray:2;}#graph-div .marker{fill:#E3AD92333;stroke:#333333;}#graph-div .marker.cross{stroke:#333333;}#graph-div svg{font-family:MiSans, :"trebuchet ms",verdana,arial,sans-serif;font-size:16px;}#graph-div p{margin:0;}#graph-div .pieCircle{stroke:black;stroke-width:2px;opacity:0.7;}#graph-div .pieOuterCircle{stroke:black;stroke-width:2px;fill:none;}#graph-div .pieTitleText{text-anchor:middle;font-size:25px;fill:#E3AD92;font-family:MiSans, :"trebuchet ms",verdana,arial,sans-serif;}#graph-div .slice{font-family:MiSans, :"trebuchet ms",verdana,arial,sans-serif;fill:#E3AD92;font-size:17px;}#graph-div .legend text{fill:#E3AD92;font-family:MiSans, :"trebuchet ms",verdana,arial,sans-serif;font-size:17px;}#graph-div :root{--mermaid-font-family:MiSans, :"trebuchet ms",verdana,arial,sans-serif;}</style><g></g><g transform="translate(225,225)"><circle class="pieOuterCircle" r="186" cy="0" cx="0"></circle><path class="pieCircle" fill="#ECECFF" d="M0,-185A185,185,0,1,1,-78.769,167.393L0,0Z"></path><path class="pieCircle" fill="#ffffde" d="M-78.769,167.393A185,185,0,0,1,-162.117,89.124L0,0Z"></path><path class="pieCircle" fill="hsl(80, 100%, 56.2745098039%)" d="M-162.117,89.124A185,185,0,0,1,-185,0L0,0Z"></path><path class="pieCircle" fill="hsl(240, 100%, 86.2745098039%)" d="M-185,0A185,185,0,0,1,-162.117,-89.124L0,0Z"></path><path class="pieCircle" fill="hsl(60, 100%, 63.5294117647%)" d="M-162.117,-89.124A185,185,0,0,1,-108.74,-149.668L0,0Z"></path><path class="pieCircle" fill="hsl(80, 100%, 76.2745098039%)" d="M-108.74,-149.668A185,185,0,0,1,-68.103,-172.009L0,0Z"></path><path class="pieCircle" fill="hsl(300, 100%, 76.2745098039%)" d="M-68.103,-172.009A185,185,0,0,1,-34.666,-181.723L0,0Z"></path><path class="pieCircle" fill="hsl(180, 100%, 56.2745098039%)" d="M-34.666,-181.723A185,185,0,0,1,-23.187,-183.541L0,0Z"></path><path class="pieCircle" fill="hsl(0, 100%, 56.2745098039%)" d="M-23.187,-183.541A185,185,0,0,1,-11.616,-184.635L0,0Z"></path><path class="pieCircle" fill="hsl(300, 100%, 56.2745098039%)" d="M-11.616,-184.635A185,185,0,0,1,0,-185L0,0Z"></path><text style="text-anchor: middle;" class="slice" transform="translate(135.4084507190012,30.26737474377029)">57%</text><text style="text-anchor: middle;" class="slice" transform="translate(-94.98091094760557,101.14439705472084)">10%</text><text style="text-anchor: middle;" class="slice" transform="translate(-134.39091360659754,34.50572184412366)">8%</text><text style="text-anchor: middle;" class="slice" transform="translate(-134.39091360659756,-34.505721844123634)">8%</text><text style="text-anchor: middle;" class="slice" transform="translate(-104.07791091122633,-91.75702131365662)">7%</text><text style="text-anchor: middle;" class="slice" transform="translate(-66.843322281613,-121.58755185608607)">4%</text><text style="text-anchor: middle;" class="slice" transform="translate(-38.71001596294311,-133.24074888767584)">3%</text><text style="text-anchor: middle;" class="slice" transform="translate(-21.705282024332057,-137.04175725757534)">1%</text><text style="text-anchor: middle;" class="slice" transform="translate(-13.057528472943936,-138.13422258867735)">1%</text><text style="text-anchor: middle;" class="slice" transform="translate(-4.358242822090425,-138.68153525074524)">1%</text><text class="pieTitleText" y="-200" x="0"></text><g transform="translate(216,-110)" class="legend"><rect style="fill: rgb(236, 236, 255); stroke: rgb(236, 236, 255);" height="18" width="18"></rect><text y="14" x="22">其他亚洲国家</text></g><g transform="translate(216,-88)" class="legend"><rect style="fill: rgb(255, 255, 222); stroke: rgb(255, 255, 222);" height="18" width="18"></rect><text y="14" x="22">中东</text></g><g transform="translate(216,-66)" class="legend"><rect style="fill: rgb(181, 255, 32); stroke: rgb(181, 255, 32);" height="18" width="18"></rect><text y="14" x="22">非洲</text></g><g transform="translate(216,-44)" class="legend"><rect style="fill: rgb(185, 185, 255); stroke: rgb(185, 185, 255);" height="18" width="18"></rect><text y="14" x="22">欧盟</text></g><g transform="translate(216,-22)" class="legend"><rect style="fill: rgb(255, 255, 69); stroke: rgb(255, 255, 69);" height="18" width="18"></rect><text y="14" x="22">其他美洲国家</text></g><g transform="translate(216,0)" class="legend"><rect style="fill: rgb(215, 255, 134); stroke: rgb(215, 255, 134);" height="18" width="18"></rect><text y="14" x="22">北美自贸区</text></g><g transform="translate(216,22)" class="legend"><rect style="fill: rgb(255, 134, 255); stroke: rgb(255, 134, 255);" height="18" width="18"></rect><text y="14" x="22">其他欧洲国家</text></g><g transform="translate(216,44)" class="legend"><rect style="fill: rgb(32, 255, 255); stroke: rgb(32, 255, 255);" height="18" width="18"></rect><text y="14" x="22">独联体</text></g><g transform="translate(216,66)" class="legend"><rect style="fill: rgb(255, 32, 32); stroke: rgb(255, 32, 32);" height="18" width="18"></rect><text y="14" x="22">日本</text></g><g transform="translate(216,88)" class="legend"><rect style="fill: rgb(255, 32, 255); stroke: rgb(255, 32, 255);" height="18" width="18"></rect><text y="14" x="22">大洋洲</text></g></g></svg>