<?xml version="1.0" encoding="UTF-8"?>
<?xml-stylesheet href="https://cdnjs.cloudflare.com/ajax/libs/font-awesome/6.6.0/css/all.min.css" type="text/css"?>
<svg aria-roledescription="pie" role="graphics-document document" style="max-width: 100%;" viewBox="0 0 616 450" xmlns="http://www.w3.org/2000/svg" width="100%" id="graph-div" height="100%" xmlns:xlink="http://www.w3.org/1999/xlink"><style>#graph-div{font-family:MiSans, :"trebuchet ms",verdana,arial,sans-serif;font-size:16px;fill:#E3AD92;}#graph-div .error-icon{fill:#552222;}#graph-div .error-text{fill:#552222;stroke:#552222;}#graph-div .edge-thickness-normal{stroke-width:1px;}#graph-div .edge-thickness-thick{stroke-width:3.5px;}#graph-div .edge-pattern-solid{stroke-dasharray:0;}#graph-div .edge-thickness-invisible{stroke-width:0;fill:none;}#graph-div .edge-pattern-dashed{stroke-dasharray:3;}#graph-div .edge-pattern-dotted{stroke-dasharray:2;}#graph-div .marker{fill:#E3AD92333;stroke:#333333;}#graph-div .marker.cross{stroke:#333333;}#graph-div svg{font-family:MiSans, :"trebuchet ms",verdana,arial,sans-serif;font-size:16px;}#graph-div p{margin:0;}#graph-div .pieCircle{stroke:black;stroke-width:2px;opacity:0.7;}#graph-div .pieOuterCircle{stroke:black;stroke-width:2px;fill:none;}#graph-div .pieTitleText{text-anchor:middle;font-size:25px;fill:#E3AD92;font-family:MiSans, :"trebuchet ms",verdana,arial,sans-serif;}#graph-div .slice{font-family:MiSans, :"trebuchet ms",verdana,arial,sans-serif;fill:#f2b94b;font-size:17px;}#graph-div .legend text{fill:#E3AD92;font-family:MiSans, :"trebuchet ms",verdana,arial,sans-serif;font-size:17px;}#graph-div :root{--mermaid-font-family:MiSans, :"trebuchet ms",verdana,arial,sans-serif;}</style><g></g><g transform="translate(225,225)"><circle class="pieOuterCircle" r="186" cy="0" cx="0"></circle><path class="pieCircle" fill="#ECECFF" d="M0,-185A185,185,0,0,1,59.375,175.213L0,0Z"></path><path class="pieCircle" fill="#ffffde" d="M59.375,175.213A185,185,0,0,1,-117.923,142.545L0,0Z"></path><path class="pieCircle" fill="hsl(80, 100%, 56.2745098039%)" d="M-117.923,142.545A185,185,0,0,1,-179.752,43.752L0,0Z"></path><path class="pieCircle" fill="hsl(240, 100%, 86.2745098039%)" d="M-179.752,43.752A185,185,0,0,1,-172.851,-65.936L0,0Z"></path><path class="pieCircle" fill="hsl(60, 100%, 63.5294117647%)" d="M-172.851,-65.936A185,185,0,0,1,-110.612,-148.29L0,0Z"></path><path class="pieCircle" fill="hsl(80, 100%, 76.2745098039%)" d="M-110.612,-148.29A185,185,0,0,1,-68.103,-172.009L0,0Z"></path><path class="pieCircle" fill="hsl(300, 100%, 76.2745098039%)" d="M-68.103,-172.009A185,185,0,0,1,-31.234,-182.344L0,0Z"></path><path class="pieCircle" fill="hsl(180, 100%, 56.2745098039%)" d="M-31.234,-182.344A185,185,0,0,1,0,-185L0,0Z"></path><text style="text-anchor: middle;" class="slice" transform="translate(136.9026747588417,-22.565906670790106)">45%</text><text style="text-anchor: middle;" class="slice" transform="translate(-25.142299703265266,136.453022193102)">16%</text><text style="text-anchor: middle;" class="slice" transform="translate(-117.61531363180524,73.60842682255944)">10%</text><text style="text-anchor: middle;" class="slice" transform="translate(-138.47620856942268,-8.712184584692166)">10%</text><text style="text-anchor: middle;" class="slice" transform="translate(-110.69397848597676,-83.65647390935213)">9%</text><text style="text-anchor: middle;" class="slice" transform="translate(-67.60595494438992,-121.16516560487639)">4%</text><text style="text-anchor: middle;" class="slice" transform="translate(-37.452550856393756,-133.59965918500407)">3%</text><text style="text-anchor: middle;" class="slice" transform="translate(-11.755083447212598,-138.25115013318722)">3%</text><text class="pieTitleText" y="-200" x="0"></text><g transform="translate(216,-88)" class="legend"><rect style="fill: rgb(236, 236, 255); stroke: rgb(236, 236, 255);" height="18" width="18"></rect><text y="14" x="22">中国</text></g><g transform="translate(216,-66)" class="legend"><rect style="fill: rgb(255, 255, 222); stroke: rgb(255, 255, 222);" height="18" width="18"></rect><text y="14" x="22">其他亚洲国家</text></g><g transform="translate(216,-44)" class="legend"><rect style="fill: rgb(181, 255, 32); stroke: rgb(181, 255, 32);" height="18" width="18"></rect><text y="14" x="22">欧盟</text></g><g transform="translate(216,-22)" class="legend"><rect style="fill: rgb(185, 185, 255); stroke: rgb(185, 185, 255);" height="18" width="18"></rect><text y="14" x="22">其他</text></g><g transform="translate(216,0)" class="legend"><rect style="fill: rgb(255, 255, 69); stroke: rgb(255, 255, 69);" height="18" width="18"></rect><text y="14" x="22">北美自贸区</text></g><g transform="translate(216,22)" class="legend"><rect style="fill: rgb(215, 255, 134); stroke: rgb(215, 255, 134);" height="18" width="18"></rect><text y="14" x="22">日本</text></g><g transform="translate(216,44)" class="legend"><rect style="fill: rgb(255, 134, 255); stroke: rgb(255, 134, 255);" height="18" width="18"></rect><text y="14" x="22">独联体</text></g><g transform="translate(216,66)" class="legend"><rect style="fill: rgb(32, 255, 255); stroke: rgb(32, 255, 255);" height="18" width="18"></rect><text y="14" x="22">其他欧洲国家</text></g></g></svg>